<svg class="lds-spinner" width="125px"  height="125px"  xmlns="http://www.w3.org/2000/svg" xmlns:xlink="http://www.w3.org/1999/xlink" viewBox="0 0 100 100" preserveAspectRatio="xMidYMid" style="background: none;"><g transform="rotate(0 50 50)">
  <rect x="46.5" y="28" rx="16.740000000000002" ry="10.08" width="7" height="12" fill="#006bb3">
    <animate attributeName="opacity" values="1;0" keyTimes="0;1" dur="2s" begin="-1.7777777777777777s" repeatCount="indefinite"></animate>
  </rect>
</g><g transform="rotate(40 50 50)">
  <rect x="46.5" y="28" rx="16.740000000000002" ry="10.08" width="7" height="12" fill="#006bb3">
    <animate attributeName="opacity" values="1;0" keyTimes="0;1" dur="2s" begin="-1.5555555555555556s" repeatCount="indefinite"></animate>
  </rect>
</g><g transform="rotate(80 50 50)">
  <rect x="46.5" y="28" rx="16.740000000000002" ry="10.08" width="7" height="12" fill="#006bb3">
    <animate attributeName="opacity" values="1;0" keyTimes="0;1" dur="2s" begin="-1.3333333333333333s" repeatCount="indefinite"></animate>
  </rect>
</g><g transform="rotate(120 50 50)">
  <rect x="46.5" y="28" rx="16.740000000000002" ry="10.08" width="7" height="12" fill="#006bb3">
    <animate attributeName="opacity" values="1;0" keyTimes="0;1" dur="2s" begin="-1.1111111111111112s" repeatCount="indefinite"></animate>
  </rect>
</g><g transform="rotate(160 50 50)">
  <rect x="46.5" y="28" rx="16.740000000000002" ry="10.08" width="7" height="12" fill="#006bb3">
    <animate attributeName="opacity" values="1;0" keyTimes="0;1" dur="2s" begin="-0.8888888888888888s" repeatCount="indefinite"></animate>
  </rect>
</g><g transform="rotate(200 50 50)">
  <rect x="46.5" y="28" rx="16.740000000000002" ry="10.08" width="7" height="12" fill="#006bb3">
    <animate attributeName="opacity" values="1;0" keyTimes="0;1" dur="2s" begin="-0.6666666666666666s" repeatCount="indefinite"></animate>
  </rect>
</g><g transform="rotate(240 50 50)">
  <rect x="46.5" y="28" rx="16.740000000000002" ry="10.08" width="7" height="12" fill="#006bb3">
    <animate attributeName="opacity" values="1;0" keyTimes="0;1" dur="2s" begin="-0.4444444444444444s" repeatCount="indefinite"></animate>
  </rect>
</g><g transform="rotate(280 50 50)">
  <rect x="46.5" y="28" rx="16.740000000000002" ry="10.08" width="7" height="12" fill="#006bb3">
    <animate attributeName="opacity" values="1;0" keyTimes="0;1" dur="2s" begin="-0.2222222222222222s" repeatCount="indefinite"></animate>
  </rect>
</g><g transform="rotate(320 50 50)">
  <rect x="46.5" y="28" rx="16.740000000000002" ry="10.08" width="7" height="12" fill="#006bb3">
    <animate attributeName="opacity" values="1;0" keyTimes="0;1" dur="2s" begin="0s" repeatCount="indefinite"></animate>
  </rect>
</g></svg>